<?xml version="1.0" encoding="UTF-8"?>
<svg version="1.1" xmlns="http://www.w3.org/2000/svg" width="48" height="48">
<path d="M0 0 C15.84 0 31.68 0 48 0 C48 15.84 48 31.68 48 48 C32.16 48 16.32 48 0 48 C0 32.16 0 16.32 0 0 Z " fill="#193150" transform="translate(0,0)"/>
<path d="M0 0 C1.40185547 0.00966797 1.40185547 0.00966797 2.83203125 0.01953125 C4.28416016 0.04466797 4.28416016 0.04466797 5.765625 0.0703125 C6.74917969 0.07933594 7.73273437 0.08835937 8.74609375 0.09765625 C11.16951907 0.12118465 13.59244722 0.15405882 16.015625 0.1953125 C16.345625 1.8453125 16.675625 3.4953125 17.015625 5.1953125 C15.695625 5.5253125 14.375625 5.8553125 13.015625 6.1953125 C12.355625 4.8753125 11.695625 3.5553125 11.015625 2.1953125 C8.045625 2.1953125 5.075625 2.1953125 2.015625 2.1953125 C2.015625 6.8153125 2.015625 11.4353125 2.015625 16.1953125 C4.985625 16.1953125 7.955625 16.1953125 11.015625 16.1953125 C11.015625 17.5153125 11.015625 18.8353125 11.015625 20.1953125 C10.355625 20.1953125 9.695625 20.1953125 9.015625 20.1953125 C9.015625 19.5353125 9.015625 18.8753125 9.015625 18.1953125 C6.705625 18.1953125 4.395625 18.1953125 2.015625 18.1953125 C2.06783203 19.96648438 2.06783203 19.96648438 2.12109375 21.7734375 C2.14923732 23.33071492 2.17653687 24.88800775 2.203125 26.4453125 C2.22826172 27.22261719 2.25339844 27.99992187 2.27929688 28.80078125 C2.32426701 32.30845186 2.33959547 34.58504255 0.671875 37.7265625 C-0.984375 39.1953125 -0.984375 39.1953125 -3.671875 39.4453125 C-4.435 39.3628125 -5.198125 39.2803125 -5.984375 39.1953125 C-6.314375 37.8753125 -6.644375 36.5553125 -6.984375 35.1953125 C-5.664375 35.1953125 -4.344375 35.1953125 -2.984375 35.1953125 C-2.984375 24.6353125 -2.984375 14.0753125 -2.984375 3.1953125 C-9.83263395 5.37591083 -9.83263395 5.37591083 -11.984375 9.1953125 C-12.26376899 11.5742654 -12.26376899 11.5742654 -12.171875 14.1328125 C-12.16542969 14.98746094 -12.15898437 15.84210937 -12.15234375 16.72265625 C-11.99713189 19.00751918 -11.62061977 21.00154055 -10.984375 23.1953125 C-11.974375 22.8653125 -12.964375 22.5353125 -13.984375 22.1953125 C-15.44456866 17.81473151 -15.72501069 13.76371954 -14.984375 9.1953125 C-11.58084331 3.119953 -6.9937986 -0.08529023 0 0 Z " fill="#BC9B33" transform="translate(19.984375,4.8046875)"/>
<path d="M0 0 C-0.33 0.99 -0.66 1.98 -1 3 C-1 2.34 -1 1.68 -1 1 C-6.31411494 2.92391649 -6.31411494 2.92391649 -10 7 C-10.27939399 9.3789529 -10.27939399 9.3789529 -10.1875 11.9375 C-10.18105469 12.79214844 -10.17460937 13.64679687 -10.16796875 14.52734375 C-10.01275689 16.81220668 -9.63624477 18.80622805 -9 21 C-9.99 20.67 -10.98 20.34 -12 20 C-13.45857967 15.62426098 -13.75239657 11.56269847 -13 7 C-9.66210779 1.27936627 -6.59703858 -1.56245651 0 0 Z " fill="#9A8335" transform="translate(18,7)"/>
<path d="M0 0 C1.65 0 3.3 0 5 0 C4.67 1.65 4.34 3.3 4 5 C2.68 4.67 1.36 4.34 0 4 C0 2.68 0 1.36 0 0 Z " fill="#D4B039" transform="translate(32,6)"/>
<path d="M0 0 C2.97 0 5.94 0 9 0 C9 1.32 9 2.64 9 4 C8.34 4 7.68 4 7 4 C7 3.34 7 2.68 7 2 C5.02 2 3.04 2 1 2 C0.67 1.34 0.34 0.68 0 0 Z " fill="#CAA537" transform="translate(22,21)"/>
<path d="M0 0 C1.96301592 3.50538557 2.95902388 7.13351728 4 11 C3.01 10.67 2.02 10.34 1 10 C-0.1577506 6.52674819 -0.06866652 3.63932552 0 0 Z " fill="#A2872E" transform="translate(5,17)"/>
</svg>
